<svg width="30" height="30" viewBox="0 0 30 30" fill="none" xmlns="http://www.w3.org/2000/svg">
<g id="ph:bug-droid-light">
<path id="Vector" d="M22.1484 5.09414L23.932 3.30937C24.0562 3.17608 24.1238 2.99979 24.1206 2.81763C24.1174 2.63547 24.0436 2.46167 23.9148 2.33285C23.786 2.20402 23.6122 2.13023 23.43 2.12702C23.2479 2.1238 23.0716 2.19142 22.9383 2.31562L21.0938 4.16484C19.3428 2.82975 17.2019 2.10663 15 2.10663C12.7981 2.10663 10.6572 2.82975 8.90625 4.16484L7.05938 2.31562C6.92609 2.19142 6.74979 2.1238 6.56764 2.12702C6.38548 2.13023 6.21168 2.20402 6.08286 2.33285C5.95403 2.46167 5.88024 2.63547 5.87702 2.81763C5.87381 2.99979 5.94143 3.17608 6.06563 3.30937L7.85156 5.09414C5.97446 6.97751 4.92088 9.52843 4.92188 12.1875V16.875C4.92188 19.5479 5.98368 22.1113 7.87369 24.0013C9.76371 25.8913 12.3271 26.9531 15 26.9531C17.6729 26.9531 20.2363 25.8913 22.1263 24.0013C24.0163 22.1113 25.0781 19.5479 25.0781 16.875V12.1875C25.0791 9.52843 24.0255 6.97751 22.1484 5.09414ZM15 3.51562C17.2991 3.51841 19.5032 4.43295 21.1289 6.05864C22.7545 7.68432 23.6691 9.88843 23.6719 12.1875V13.3594H6.32813V12.1875C6.33092 9.88843 7.24545 7.68432 8.87114 6.05864C10.4968 4.43295 12.7009 3.51841 15 3.51562ZM15 25.5469C12.7009 25.5441 10.4968 24.6295 8.87114 23.0039C7.24545 21.3782 6.33092 19.1741 6.32813 16.875V14.7656H23.6719V16.875C23.6691 19.1741 22.7545 21.3782 21.1289 23.0039C19.5032 24.6295 17.2991 25.5441 15 25.5469ZM17.1094 9.84374C17.1094 9.61197 17.1781 9.3854 17.3069 9.19269C17.4356 8.99997 17.6187 8.84977 17.8328 8.76107C18.0469 8.67238 18.2825 8.64917 18.5099 8.69439C18.7372 8.7396 18.946 8.85121 19.1099 9.0151C19.2738 9.17899 19.3854 9.3878 19.4306 9.61512C19.4758 9.84244 19.4526 10.0781 19.3639 10.2922C19.2752 10.5063 19.125 10.6894 18.9323 10.8181C18.7396 10.9469 18.513 11.0156 18.2813 11.0156C17.9705 11.0156 17.6724 10.8922 17.4526 10.6724C17.2328 10.4526 17.1094 10.1545 17.1094 9.84374ZM10.5469 9.84374C10.5469 9.61197 10.6156 9.3854 10.7444 9.19269C10.8731 8.99997 11.0562 8.84977 11.2703 8.76107C11.4844 8.67238 11.7201 8.64917 11.9474 8.69439C12.1747 8.7396 12.3835 8.85121 12.5474 9.0151C12.7113 9.17899 12.8229 9.3878 12.8681 9.61512C12.9133 9.84244 12.8901 10.0781 12.8014 10.2922C12.7127 10.5063 12.5625 10.6894 12.3698 10.8181C12.1771 10.9469 11.9505 11.0156 11.7188 11.0156C11.408 11.0156 11.1099 10.8922 10.8901 10.6724C10.6703 10.4526 10.5469 10.1545 10.5469 9.84374Z" fill="#864218"/>
</g>
</svg>
