<svg width="29" height="29" viewBox="0 0 29 29" fill="none" xmlns="http://www.w3.org/2000/svg">
<g id="material-symbols:chat-outline">
<path id="Vector" d="M7.24984 16.9167H16.9165V14.5H7.24984V16.9167ZM7.24984 13.2917H21.7498V10.875H7.24984V13.2917ZM7.24984 9.66666H21.7498V7.24999H7.24984V9.66666ZM2.4165 26.5833V4.83333C2.4165 4.16874 2.65334 3.59962 3.127 3.12595C3.60067 2.65228 4.16939 2.41585 4.83317 2.41666H24.1665C24.8311 2.41666 25.4002 2.65349 25.8739 3.12716C26.3475 3.60083 26.584 4.16955 26.5832 4.83333V19.3333C26.5832 19.9979 26.3463 20.567 25.8727 21.0407C25.399 21.5144 24.8303 21.7508 24.1665 21.75H7.24984L2.4165 26.5833ZM4.83317 20.7531L6.25296 19.3333H24.1665V4.83333H4.83317V20.7531Z" fill="#87451D"/>
</g>
</svg>
