<svg width="25" height="25" viewBox="0 0 25 25" fill="none" xmlns="http://www.w3.org/2000/svg">
<path id="Vector" d="M2.43902 25C1.76829 25 1.1939 24.7613 0.715854 24.2838C0.238618 23.8071 0 23.2339 0 22.5639V5.51157C0 4.84166 0.238618 4.26797 0.715854 3.7905C1.1939 3.31385 1.76829 3.07552 2.43902 3.07552H13.3232L10.8841 5.51157H2.43902V22.5639H19.5122V14.0987L21.9512 11.6626V22.5639C21.9512 23.2339 21.7126 23.8071 21.2354 24.2838C20.7573 24.7613 20.1829 25 19.5122 25H2.43902ZM16.0671 3.77588L17.8049 5.48112L9.7561 13.5201V15.2558H11.4634L19.5427 7.18636L21.2805 8.8916L12.5 17.6918H7.31707V12.5152L16.0671 3.77588ZM21.2805 8.8916L16.0671 3.77588L19.1159 0.730816C19.6037 0.243606 20.1882 0 20.8695 0C21.55 0 22.124 0.243606 22.5915 0.730816L24.2988 2.4665C24.7663 2.93341 25 3.50183 25 4.17174C25 4.84166 24.7663 5.41007 24.2988 5.87698L21.2805 8.8916Z" fill="#86441C"/>
</svg>
