<svg width="35" height="35" viewBox="0 0 35 35" fill="none" xmlns="http://www.w3.org/2000/svg">
<g id="iconamoon:profile-circle-fill">
<path id="Vector" fill-rule="evenodd" clip-rule="evenodd" d="M17.5003 5.83334C15.4598 5.83296 13.4548 6.3678 11.6856 7.38446C9.91629 8.40113 8.44463 9.86405 7.41745 11.6272C6.39027 13.3904 5.84351 15.3922 5.83173 17.4327C5.81996 19.4732 6.34358 21.4811 7.35034 23.256C8.03082 22.3717 8.90555 21.6556 9.90693 21.1633C10.9083 20.671 12.0095 20.4155 13.1253 20.4167H21.8753C22.9912 20.4155 24.0924 20.671 25.0938 21.1633C26.0951 21.6556 26.9699 22.3717 27.6503 23.256C28.6571 21.4811 29.1807 19.4732 29.169 17.4327C29.1572 15.3922 28.6104 13.3904 27.5832 11.6272C26.5561 9.86405 25.0844 8.40113 23.3151 7.38446C21.5459 6.3678 19.5409 5.83296 17.5003 5.83334ZM29.0839 26.3608C31.0337 23.8189 32.0884 20.7036 32.0837 17.5C32.0837 9.44563 25.5547 2.91667 17.5003 2.91667C9.44597 2.91667 2.91701 9.44563 2.91701 17.5C2.91219 20.7036 3.96687 23.819 5.9168 26.3608L5.90951 26.3871L6.42722 26.9894C7.79497 28.5885 9.49319 29.8719 11.4048 30.7514C13.3165 31.6308 15.3961 32.0852 17.5003 32.0833C20.4569 32.0888 23.3445 31.1907 25.7764 29.5094C26.8132 28.7931 27.7533 27.9461 28.5735 26.9894L29.0912 26.3871L29.0839 26.3608ZM17.5003 8.75C16.34 8.75 15.2272 9.21094 14.4067 10.0314C13.5863 10.8519 13.1253 11.9647 13.1253 13.125C13.1253 14.2853 13.5863 15.3981 14.4067 16.2186C15.2272 17.0391 16.34 17.5 17.5003 17.5C18.6607 17.5 19.7735 17.0391 20.5939 16.2186C21.4144 15.3981 21.8753 14.2853 21.8753 13.125C21.8753 11.9647 21.4144 10.8519 20.5939 10.0314C19.7735 9.21094 18.6607 8.75 17.5003 8.75Z" fill="white"/>
</g>
</svg>
