<svg width="28" height="28" viewBox="0 0 28 28" fill="none" xmlns="http://www.w3.org/2000/svg">
<g id="mdi:network-point-of-sale">
<path id="Vector" d="M19.832 10.4993H9.33203V8.16602H19.832V10.4993ZM8.16536 8.16602H5.83203V10.4993H8.16536V8.16602ZM8.16536 4.66602H5.83203V6.99935H8.16536V4.66602ZM11.6654 4.66602H9.33203V6.99935H11.6654V4.66602ZM15.1654 19.8327V22.166H16.332C16.9737 22.166 17.4987 22.691 17.4987 23.3327H25.6654V25.666H17.4987C17.4987 26.3077 16.9737 26.8327 16.332 26.8327H11.6654C11.0237 26.8327 10.4987 26.3077 10.4987 25.666H2.33203V23.3327H10.4987C10.4987 22.691 11.0237 22.166 11.6654 22.166H12.832V19.8327H4.66536C3.37036 19.8327 2.33203 18.7943 2.33203 17.4993V3.49935C2.33203 2.88051 2.57786 2.28702 3.01545 1.84943C3.45303 1.41185 4.04653 1.16602 4.66536 1.16602H23.332C24.627 1.16602 25.6654 2.20435 25.6654 3.49935V17.4993C25.6654 18.7943 24.627 19.8327 23.332 19.8327H15.1654ZM23.332 17.4993V3.49935H4.66536V17.4993H23.332ZM12.832 6.99935H22.1654V4.66602H12.832V6.99935ZM5.83203 13.9993H12.832V11.666H5.83203V13.9993ZM15.1654 16.3327H22.1654V13.9993H15.1654V16.3327Z" fill="#854219"/>
</g>
</svg>
